<?xml version="1.0" standalone="no"?>
<!DOCTYPE svg PUBLIC "-//W3C//DTD SVG 20010904//EN"
 "http://www.w3.org/TR/2001/REC-SVG-20010904/DTD/svg10.dtd">
<svg version="1.0" xmlns="http://www.w3.org/2000/svg"
 width="360.000000pt" height="360.000000pt" viewBox="0 0 360.000000 360.000000"
 preserveAspectRatio="xMidYMid meet">
<metadata>
Created by potrace 1.14, written by Peter Selinger 2001-2017
</metadata>
<g transform="translate(0.000000,360.000000) scale(0.100000,-0.100000)"
fill="#000000" stroke="none">
<path d="M925 3161 c-72 -18 -142 -78 -171 -147 -12 -28 -14 -236 -14 -1219 0
-1184 0 -1185 21 -1230 24 -50 75 -99 128 -124 32 -14 125 -16 916 -16 l880 0
53 29 c28 16 63 44 77 62 58 75 55 16 55 1288 l0 1172 -26 52 c-14 29 -42 66
-62 82 -74 61 -53 60 -981 59 -465 -1 -859 -4 -876 -8z m1770 -101 c27 -13 49
-34 63 -59 l23 -40 -1 -1166 c0 -1258 3 -1191 -52 -1242 -12 -12 -36 -26 -51
-32 -19 -8 -300 -11 -876 -11 l-847 0 -44 23 c-31 15 -51 35 -67 66 l-23 44 0
1154 c0 1130 0 1155 20 1193 18 36 55 70 90 83 8 3 399 6 869 6 835 1 856 1
896 -19z"/>
<path d="M1130 2941 c-74 -23 -127 -69 -159 -141 -17 -38 -21 -66 -21 -174 0
-71 5 -146 12 -167 15 -51 69 -114 122 -142 41 -22 41 -22 699 -25 428 -2 671
1 696 8 57 15 125 72 152 127 22 44 24 61 24 193 0 136 -2 149 -26 195 -28 56
-91 109 -147 125 -43 12 -1312 13 -1352 1z m1360 -102 c21 -12 48 -39 60 -60
20 -36 21 -51 18 -169 -3 -142 -11 -162 -78 -207 l-33 -23 -649 0 c-720 0
-695 -2 -742 66 -25 37 -26 45 -26 175 0 125 2 139 23 169 12 18 38 41 57 51
33 18 71 19 683 19 643 0 650 0 687 -21z"/>
<path d="M2373 2768 c-35 -17 -53 -68 -53 -148 0 -92 19 -135 67 -150 45 -16
88 2 110 44 21 39 23 158 4 204 -22 52 -78 74 -128 50z m67 -57 c5 -11 10 -52
10 -91 0 -75 -11 -110 -35 -110 -8 0 -19 9 -25 19 -13 25 -13 141 0 175 11 31
35 34 50 7z"/>
<path d="M1070 2063 c-38 -7 -90 -51 -106 -89 -52 -123 55 -248 182 -212 51
14 101 65 110 112 8 43 -9 111 -34 140 -33 36 -101 58 -152 49z m74 -104 c69
-55 -9 -154 -82 -103 -44 31 -17 124 37 124 10 0 30 -9 45 -21z"/>
<path d="M2460 2058 c-66 -18 -110 -78 -110 -148 0 -142 169 -208 267 -104 46
49 53 108 22 171 -35 70 -104 101 -179 81z m84 -99 c32 -25 34 -64 4 -96 -42
-45 -111 -15 -111 47 0 22 7 39 22 52 30 23 52 23 85 -3z"/>
<path d="M1722 2040 c-128 -78 -73 -284 75 -284 97 1 158 60 158 155 0 64 -19
100 -68 129 -43 27 -121 26 -165 0z m122 -81 c32 -25 34 -64 4 -96 -25 -27
-54 -29 -86 -7 -31 21 -31 87 0 108 30 21 50 20 82 -5z"/>
<path d="M1056 1550 c-60 -18 -106 -83 -106 -150 0 -88 63 -150 151 -150 68 0
111 25 139 79 40 80 11 168 -70 209 -47 23 -67 26 -114 12z m91 -102 c31 -29
30 -71 -3 -97 -33 -26 -55 -26 -85 -3 -31 26 -31 78 0 104 31 24 60 23 88 -4z"/>
<path d="M1770 1553 c-14 -3 -40 -16 -58 -29 -119 -91 -57 -276 93 -276 123 0
197 141 126 241 -35 48 -102 75 -161 64z m74 -104 c17 -13 26 -30 26 -49 0
-19 -9 -36 -26 -49 -32 -25 -52 -26 -82 -5 -31 21 -31 87 0 108 30 21 50 20
82 -5z"/>
<path d="M2456 1550 c-61 -19 -106 -83 -106 -152 0 -156 219 -207 290 -67 26
50 25 95 -3 143 -35 63 -115 96 -181 76z m88 -101 c17 -13 26 -30 26 -49 0
-31 -39 -70 -70 -70 -32 0 -63 34 -63 70 0 22 7 39 22 52 30 23 52 23 85 -3z"/>
<path d="M1056 1040 c-120 -36 -143 -207 -37 -277 47 -32 125 -32 172 0 100
66 86 218 -25 268 -45 20 -66 22 -110 9z m94 -100 c62 -62 -30 -154 -97 -98
-7 6 -13 28 -13 49 0 62 67 92 110 49z"/>
<path d="M1756 1040 c-61 -19 -106 -83 -106 -152 0 -85 65 -148 154 -148 64 0
108 28 136 86 40 82 9 167 -74 205 -45 20 -66 22 -110 9z m93 -101 c30 -28 25
-75 -10 -101 -35 -26 -77 -15 -94 25 -15 36 -9 63 18 82 30 21 59 19 86 -6z"/>
<path d="M2456 1040 c-122 -37 -143 -213 -34 -280 44 -27 120 -27 164 0 78 49
94 165 33 235 -42 47 -100 63 -163 45z m94 -100 c29 -29 26 -74 -6 -99 -33
-26 -55 -26 -85 -3 -15 13 -22 30 -22 52 0 61 71 92 113 50z"/>
</g>
</svg>
